<?xml version="1.0" encoding="UTF-8" standalone="no"?>
<!DOCTYPE svg PUBLIC "-//W3C//DTD SVG 1.1//EN" "http://www.w3.org/Graphics/SVG/1.1/DTD/svg11.dtd">
<svg width="100%" height="100%" viewBox="0 0 1125 2436" version="1.1" xmlns="http://www.w3.org/2000/svg" xmlns:xlink="http://www.w3.org/1999/xlink" xml:space="preserve" xmlns:serif="http://www.serif.com/" style="fill-rule:evenodd;clip-rule:evenodd;stroke-linejoin:round;stroke-miterlimit:2;">
    <rect id="Artboard1" x="0" y="0" width="1125" height="2436" style="fill:none;"/>
    <clipPath id="_clip1">
        <rect id="Artboard11" serif:id="Artboard1" x="0" y="0" width="1125" height="2436"/>
    </clipPath>
    <g clip-path="url(#_clip1)">
        <rect x="-7.804" y="-10.718" width="1164.19" height="2455.34" style="fill:url(#_Linear2);"/>
        <g transform="matrix(0.444506,0,0,0.871524,46.3367,251.896)">
            <path d="M1034.43,2004.46L1034.43,2092.09C1034.43,2116.28 995.936,2135.91 948.521,2135.91L169.325,2135.91C121.91,2135.91 83.415,2116.28 83.415,2092.09L83.415,2004.46C83.415,1980.28 121.91,1960.64 169.325,1960.64L948.521,1960.64C995.936,1960.64 1034.43,1980.28 1034.43,2004.46Z" style="fill:rgb(235,235,235);"/>
        </g>
        <g transform="matrix(1,0,0,1,-44.4731,419.199)">
            <g transform="matrix(60,0,0,60,505.045,1641.24)">
            </g>
            <text x="196.198px" y="1641.24px" style="font-family:'Arial-BoldMT', 'Arial', sans-serif;font-weight:700;font-size:60px;">T<tspan x="228.395px 265.045px " y="1641.24px 1641.24px ">om</tspan>ar foto</text>
        </g>
        <g transform="matrix(0.444506,0,0,0.871524,579.494,251.896)">
            <path d="M1034.43,2004.46L1034.43,2092.09C1034.43,2116.28 995.936,2135.91 948.521,2135.91L169.325,2135.91C121.91,2135.91 83.415,2116.28 83.415,2092.09L83.415,2004.46C83.415,1980.28 121.91,1960.64 169.325,1960.64L948.521,1960.64C995.936,1960.64 1034.43,1980.28 1034.43,2004.46Z" style="fill:rgb(235,235,235);"/>
        </g>
        <g transform="matrix(1,0,0,1,488.685,419.199)">
            <g transform="matrix(60,0,0,60,512.296,1641.24)">
            </g>
            <text x="188.947px" y="1641.24px" style="font-family:'Arial-BoldMT', 'Arial', sans-serif;font-weight:700;font-size:60px;">Cargar foto</text>
        </g>
        <g transform="matrix(0.628627,0,0,0.871524,209.332,424.777)">
            <path d="M1034.43,2004.46L1034.43,2092.09C1034.43,2116.28 1007.21,2135.91 973.684,2135.91L144.163,2135.91C110.635,2135.91 83.415,2116.28 83.415,2092.09L83.415,2004.46C83.415,1980.28 110.635,1960.64 144.163,1960.64L973.684,1960.64C1007.21,1960.64 1034.43,1980.28 1034.43,2004.46Z" style="fill:rgb(235,235,235);"/>
        </g>
        <g transform="matrix(1,0,0,1,133.881,592.08)">
            <g transform="matrix(60,0,0,60,542.424,1641.24)">
            </g>
            <text x="309.016px" y="1641.24px" style="font-family:'Arial-BoldMT', 'Arial', sans-serif;font-weight:700;font-size:60px;">Analizar</text>
        </g>
    </g>
    <defs>
        <linearGradient id="_Linear2" x1="0" y1="0" x2="1" y2="0" gradientUnits="userSpaceOnUse" gradientTransform="matrix(-7.42712,1338.91,-1338.91,-7.42712,590.709,508.784)"><stop offset="0" style="stop-color:rgb(191,105,36);stop-opacity:1"/><stop offset="1" style="stop-color:rgb(255,242,191);stop-opacity:1"/></linearGradient>
    </defs>
</svg>
